# Blender v2.79 (sub 0) OBJ File: ''
# www.blender.org
mtllib grasper_jaws_down_collision.mtl
o Mesh4_Component_1_2_Model.001
v 1.977560 25.312500 0.000699
v 2.015060 25.350000 -1.249302
v 0.115384 25.269232 -1.249302
v 0.230769 25.384615 0.000699
v 2.056152 19.114269 0.000697
v 0.000000 22.165102 0.000699
v -1.872211 21.428102 0.000698
v -2.165060 17.500000 0.000697
v 0.002685 17.557167 0.000697
v 2.005716 18.992897 -1.249304
v 0.009143 17.645304 -1.299304
v -2.074649 17.511305 -1.153304
v -2.026287 20.930975 -1.249304
v -0.069262 22.300829 -1.249302
v -1.912637 17.500000 1.499664
v 0.000000 17.500000 1.752076
v 0.000000 -0.000000 1.752070
v -1.226481 0.178801 1.782350
v 0.000000 0.000000 -1.749310
v -2.123469 1.123469 0.992942
v -2.123389 1.123389 -0.990837
v -1.291098 0.254712 -1.756526
v -1.480730 17.500000 -1.689972
vt 15.079200 14.763800
vt 10.492400 9.842520
vt 15.079200 9.842520
vt 14.763800 98.425201
vt 9.842520 78.740196
vt 14.763800 78.740196
vt -14.763800 98.425201
vt -9.842520 87.264008
vt -9.842520 98.425201
vt -9.842520 19.841200
vt -14.763800 19.722307
vt -9.842520 17.615999
vt -9.842520 54.642151
vt -14.763800 55.808998
vt -14.763800 53.583801
vt -12.145400 4.586860
vt -7.534180 4.586860
vt -9.842520 68.897598
vt 8.523870 68.897598
vt 4.586860 -0.000000
vt 8.523870 -0.000000
vt 16.732300 -0.000000
vt 14.965246 69.286774
vt 9.842520 69.059174
vt -4.586860 2.947310
vt -8.523870 16.732300
vt -8.523870 2.947310
vt -12.455700 68.897598
vt -11.855700 3.639000
vt -11.855700 68.897598
vt -4.586860 68.897598
vt -8.523870 0.000000
vt -4.586860 0.000000
vt 0.831256 14.763236
vt 8.523870 14.965246
vt 2.813978 16.214417
vt 9.842520 53.583801
vt 14.763800 55.808998
vt 9.842520 55.808998
vt 10.492400 14.763800
vt 16.088747 75.479492
vt 16.063450 99.409599
vt 8.523870 87.264008
vt 9.735271 99.636765
vt 2.360827 83.509468
vt 8.595173 69.099831
vt 0.000000 68.897598
vt 9.842520 98.425201
vt -8.351068 87.225739
vt -9.280999 99.182434
vt -16.063450 99.409599
vt -15.878256 75.033684
vt -8.676379 69.407425
vt -1.017051 82.195496
vt -0.691829 69.228516
vt -14.763799 87.264008
vt -7.534180 68.897598
vt -9.842520 78.740196
vt -14.153975 70.407639
vt -14.763800 78.740196
vt 1.672163 4.629537
vt 8.523870 2.947310
vt 8.523870 9.842520
vt 0.000000 9.842520
vt 4.586860 68.897598
vt 2.947310 68.897598
vt 2.947310 -0.000000
vt -4.586860 16.732300
vt -16.417751 -1.801705
vt -3.176950 -2.190556
vt -13.604599 2.753263
vt -6.076447 2.754819
vt -2.940160 3.639000
vt -2.340170 3.243400
vt -2.694006 68.897598
vt -12.455700 3.243400
vt -8.523870 68.897598
vt 14.763800 53.583801
vn 0.5810 0.5826 -0.5683
vn -0.5230 0.6218 0.5830
vn 0.5760 0.5595 0.5960
vn 0.7120 -0.3276 0.6210
vn 0.6950 -0.3741 -0.6140
vn -0.5987 0.5508 -0.5816
vn -0.7923 0.5997 0.1124
vn -0.4871 0.3105 -0.8163
vn -0.7972 0.6002 -0.0648
vn -0.7252 0.2833 -0.6275
vn -0.9050 -0.2911 -0.3102
vn -0.9023 -0.2917 0.3173
vn -0.9996 0.0278 0.0026
vn -0.1239 0.0105 0.9922
vn -0.4497 -0.2538 0.8564
vn 0.0247 -0.0000 0.9997
vn 0.7532 0.0033 -0.6578
vn 0.5375 -0.1892 -0.8218
vn 0.8451 0.0665 0.5304
vn -0.1556 -0.9878 -0.0040
vn -0.1829 -0.9830 -0.0138
vn -0.1443 -0.9895 -0.0000
vn -0.2174 0.5701 -0.7923
vn -0.8244 0.1365 -0.5493
vn -0.4757 -0.2528 -0.8425
vn 0.0000 -0.0000 1.0000
vn -0.0182 0.6889 0.7246
vn -0.6952 0.0108 0.7188
vn -0.0170 0.9997 0.0164
vn -0.0043 0.9995 0.0326
vn 1.0000 -0.0000 0.0015
vn 1.0000 -0.0001 0.0001
vn -0.1934 -0.9810 -0.0175
usemtl FrontColor.004
s 1
f 2/1/1 4/2/2 1/3/3
f 2/4/1 5/5/4 10/6/5
f 3/7/6 6/8/7 4/9/2
f 6/10/7 14/11/8 7/12/9
f 7/13/9 14/14/8 13/15/10
f 21/16/11 20/17/12 8/18/13
f 16/19/14 18/20/15 17/21/16
f 19/22/17 11/23/18 9/24/19
f 18/25/20 19/26/21 17/27/22
f 23/28/23 21/29/11 12/30/24
f 23/31/23 19/32/17 22/33/25
f 12/34/24 11/35/18 23/36/23
f 9/37/19 10/38/5 5/39/4
f 2/1/1 3/40/6 4/2/2
f 5/41/4 1/42/3 6/43/26
f 4/44/2 6/43/26 1/42/3
f 6/43/26 7/45/26 5/41/4
f 9/46/19 5/41/4 7/45/26
f 8/47/27 9/46/19 7/45/26
f 2/4/1 1/48/3 5/5/4
f 14/49/8 3/50/6 2/51/1
f 2/51/1 10/52/5 14/49/8
f 10/52/5 11/53/18 13/54/10
f 13/54/10 14/49/8 10/52/5
f 12/55/24 13/54/10 11/53/18
f 3/7/6 14/56/8 6/8/7
f 20/17/12 15/57/28 8/18/13
f 8/18/13 7/58/9 12/59/24
f 7/58/9 13/60/10 12/59/24
f 12/59/24 21/16/11 8/18/13
f 15/61/29 16/62/30 9/63/19
f 9/63/19 8/64/27 15/61/29
f 16/19/14 15/65/28 18/20/15
f 16/66/31 17/67/32 9/24/19
f 17/67/32 19/22/17 9/24/19
f 18/25/20 22/68/33 19/26/21
f 22/69/25 18/70/15 21/71/11
f 20/72/12 21/71/11 18/70/15
f 20/73/12 18/74/15 15/75/28
f 23/28/23 22/76/25 21/29/11
f 23/31/23 11/77/18 19/32/17
f 9/37/19 11/78/18 10/38/5
