# Blender v2.79 (sub 0) OBJ File: ''
# www.blender.org
mtllib grasper_shaft_collision.mtl
o Mesh1_Group1_Model
v 2.218295 25.500000 1.204580
v 2.640257 350.000000 0.000806
v -2.370499 25.500000 1.084239
v -2.218295 25.500000 -1.203184
v 2.370499 25.500000 -1.082843
v 2.051368 19.136086 1.264882
v -2.106909 19.230665 1.293606
v 1.349992 350.000000 2.167920
v -1.002641 350.000000 2.421364
v 1.132825 18.042027 2.350172
v -0.997189 18.043016 2.321439
v 0.000000 17.645689 1.250695
v -2.640257 350.000000 0.000806
v 1.002636 350.000000 -2.419754
v -1.350011 350.000000 -2.166298
v -1.132859 18.042051 -2.348752
v 0.997221 18.043036 -2.320026
v 2.106909 19.230665 -1.292214
v -2.051368 19.136086 -1.263490
v -0.000000 17.645689 -1.249303
vt -1.062937 5.760931
vt -1.223764 14.534727
vt -18.622108 13.924133
vt -17.439819 5.134289
vt -1.318650 30.177401
vt -18.366400 30.177401
vt 14.651127 6.517613
vt 15.085000 30.177401
vt 12.744996 3.893735
vt 7.364247 0.359802
vt 11.071526 0.197361
vt 8.473475 1307.739990
vt 0.532143 3.711740
vt 2.782812 1.841940
vt 1.582596 1307.739990
vt -0.532143 1307.739990
vt -3.101560 1307.739990
vt -3.101560 30.177401
vt 13.476328 18.498966
vt 4.751701 18.023411
vt 19.055943 9.875369
vt -8.707783 30.177402
vt -9.796718 1307.739990
vt -12.327700 30.177401
vt -12.949473 6.517613
vt -12.515600 30.177401
vt -14.855605 3.893735
vt -9.582922 0.359782
vt -7.188900 -0.000000
vt -9.022940 1307.739990
vt -3.101560 3.711740
vt -0.850882 1.841935
vt -1.505744 1307.739990
vt 2.245193 5.134288
vt 18.366400 30.177401
vt 1.318650 30.177401
vt 12.327700 30.177401
vt 11.274160 1307.739990
vt 9.758320 30.177401
vt -18.461290 5.150338
vt -2.247391 5.129699
vt 15.085000 1307.739990
vt 12.515600 1307.739990
vt 12.327700 1307.739990
vt -2.830308 6.741481
vt -4.921260 -1.507000
vt -4.921260 -3.732180
vt -1.398587 -2.929594
vt -4.921260 -8.322095
vt 0.000000 -9.758320
vt -0.290444 -7.533140
vt 4.921260 11.885000
vt 4.921260 14.110200
vt 1.398588 12.687607
vt -9.775948 0.656772
vt 0.629110 9.809692
vt 6.252571 1.158408
vt 14.944724 1.697356
vt -12.515600 1307.739990
vt -15.085000 1307.739990
vt -9.758320 1307.739990
vt -12.327700 1307.739990
vt -11.014544 0.197350
vt 0.532143 1307.739990
vt 0.532143 30.177401
vt 3.101560 1307.739990
vt 0.803392 6.741481
vt 17.437622 5.129699
vt 9.909122 0.656772
vt 14.763800 14.110200
vt 14.763800 11.885000
vt 18.286461 12.687600
vt 14.763800 11.194546
vt 19.684999 9.758320
vt 19.394600 11.983500
vt -14.763800 -3.732180
vt -14.763800 -1.507000
vt -18.286461 -2.929598
vn -0.8880 -0.4138 0.2004
vn -0.9000 -0.4047 -0.1616
vn 0.8911 -0.4129 -0.1883
vn 0.8779 -0.2442 -0.4119
vn 0.9000 -0.4047 0.1616
vn 0.5331 -0.6141 0.5820
vn -0.4468 -0.6419 0.6232
vn -0.3340 0.6078 0.7205
vn -0.9046 -0.2677 -0.3318
vn -0.7963 0.6044 0.0229
vn 0.3340 0.6078 -0.7205
vn -0.4240 0.6193 -0.6608
vn 0.7963 0.6044 -0.0229
vn -0.8779 -0.2442 0.4119
vn -0.5331 -0.6141 -0.5820
vn 0.4468 -0.6419 -0.6232
vn 0.9046 -0.2677 0.3318
vn 0.4240 0.6193 0.6609
vn -0.0158 -0.8204 -0.5716
vn 0.0158 -0.8204 0.5716
usemtl FrontColor
s 1
f 3/1/1 4/2/2 5/3/3
f 6/4/4 3/5/1 1/6/5
f 6/7/4 1/8/5 10/9/6
f 11/10/7 10/11/6 9/12/8
f 7/13/9 11/14/7 9/15/8
f 9/16/8 13/17/10 3/18/1
f 14/19/11 15/20/12 2/21/13
f 3/22/1 13/23/10 4/24/2
f 19/25/14 4/26/2 16/27/15
f 17/28/16 16/29/15 14/30/11
f 18/31/17 17/32/16 14/33/11
f 19/34/14 5/35/3 4/36/2
f 5/37/3 2/38/13 1/39/5
f 3/1/1 5/3/3 1/40/5
f 6/4/4 7/41/9 3/5/1
f 2/42/13 8/43/18 1/8/5
f 8/43/18 10/9/6 1/8/5
f 8/44/18 9/12/8 10/11/6
f 7/45/9 9/16/8 3/18/1
f 7/46/9 12/47/19 11/48/7
f 12/49/19 10/50/6 11/51/7
f 12/52/19 6/53/4 10/54/6
f 12/55/19 7/41/9 6/4/4
f 13/56/10 9/57/8 8/58/18
f 8/58/18 2/21/13 13/56/10
f 13/56/10 2/21/13 15/20/12
f 13/59/10 15/60/12 4/26/2
f 15/60/12 16/27/15 4/26/2
f 15/61/12 14/62/11 16/63/15
f 2/64/13 5/65/3 14/66/11
f 14/66/11 5/65/3 18/67/17
f 19/34/14 18/68/17 5/35/3
f 20/69/20 18/68/17 19/34/14
f 18/70/17 20/71/20 17/72/16
f 20/73/20 16/74/15 17/75/16
f 20/76/20 19/77/14 16/78/15
