# Blender v2.79 (sub 0) OBJ File: ''
# www.blender.org
mtllib grasper_jaws_up_collision.mtl
o Mesh3_Component_1_1_Model.001
v -1.934291 5.384615 1.250702
v -0.230769 5.384615 0.000703
v -2.049676 5.269232 0.000703
v -2.038097 -0.963373 1.250699
v -2.026287 -0.930973 0.000700
v -0.115384 5.269232 1.250702
v 0.056364 2.305431 0.000703
v 2.005716 1.007103 1.250699
v 2.056152 0.885731 0.000701
v 2.083596 -18.916405 1.138441
v 2.084243 -18.915756 -1.141603
v 2.272904 -2.500000 -0.225655
v 0.000000 -2.500000 -1.750681
v 1.080939 -19.940641 -1.782511
v 0.000000 -20.000000 -1.750690
v 0.000000 -20.000000 1.750690
v -0.017220 -2.334925 1.250699
v -0.002685 -2.442833 0.000700
v 1.570532 -2.500000 -1.658565
v 0.332614 -2.500000 1.909429
v 1.114239 -19.904799 1.776256
v 2.067398 -2.491343 1.191143
v 0.045699 2.272182 1.250702
vt 15.079200 14.763800
vt 10.492400 9.842520
vt 15.079200 9.842520
vt 14.763800 78.740196
vt 9.842520 98.425201
vt 9.842520 78.740196
vt -14.763800 98.425201
vt -9.842520 87.264008
vt -9.842520 98.425201
vt -9.842520 55.808998
vt -14.763800 53.583801
vt -9.842520 53.583801
vt -12.145400 4.586860
vt -7.534180 4.586860
vt -9.277799 68.897598
vt 8.523870 68.897598
vt 4.586860 -0.000000
vt 8.523870 -0.000000
vt 16.732300 -0.000000
vt 14.763800 69.331146
vt 9.842520 69.059174
vt -4.586860 2.947310
vt -8.523870 16.732300
vt -8.523870 2.947310
vt -3.669040 3.779516
vt -3.416120 68.897598
vt -4.016110 68.897598
vt -9.785610 68.897598
vt -9.535154 1.979945
vt -9.185620 68.897598
vt -7.489920 68.897598
vt -8.523870 0.000000
vt -4.586860 0.000000
vt 0.976241 14.913428
vt 8.523870 14.763800
vt 7.227889 16.691988
vt 9.842520 53.583801
vt 14.763800 55.808998
vt 9.842520 55.808998
vt 10.492400 14.763800
vt 16.030708 75.284821
vt 16.290585 99.182434
vt 8.414194 87.238564
vt 9.735271 99.636765
vt 8.595174 69.099831
vt 0.959007 82.000824
vt 0.000000 68.897598
vt 14.763800 98.425201
vt -8.418610 87.241943
vt -9.280999 99.182434
vt -15.836317 99.636765
vt -15.943458 75.225266
vt -8.676379 69.407425
vt -1.169502 82.446625
vt -0.640214 69.350693
vt -14.763799 87.264008
vt -14.763800 55.808998
vt -9.842520 78.740196
vt -14.153970 70.407631
vt -14.763800 78.740196
vt 2.521334 3.650716
vt 8.523870 2.947310
vt 8.523870 9.842520
vt 0.057387 8.974774
vt 4.586860 68.897598
vt 2.947310 68.897598
vt 2.947310 -0.000000
vt 16.732300 68.897598
vt -4.586860 16.732300
vt -16.655674 -2.679640
vt -2.997971 -2.870643
vt -14.027287 2.372902
vt -5.645983 2.368397
vt -0.671921 2.792310
vt -0.071931 2.293430
vt -0.425432 68.897598
vt -10.435614 68.897598
vt -10.861500 2.293430
vt -10.261500 2.792310
vt 14.763800 53.583801
vn -0.5391 0.6062 0.5848
vn 0.5161 0.6238 -0.5869
vn -0.6217 0.5287 -0.5779
vn -0.7022 -0.3631 0.6124
vn -0.6980 -0.3467 -0.6266
vn 0.5982 0.5478 0.5849
vn 0.5000 0.2852 -0.8177
vn 0.6846 0.3914 0.6149
vn 0.7014 0.3574 -0.6167
vn 0.8750 -0.2927 0.3856
vn 0.8761 -0.2950 -0.3813
vn 0.9983 0.0226 -0.0538
vn 0.0551 0.0052 -0.9985
vn 0.4361 -0.2940 -0.8505
vn -0.0294 0.0000 -0.9996
vn -0.7355 -0.0057 0.6775
vn -0.6981 -0.0539 0.7140
vn -0.8530 0.0603 -0.5185
vn 0.0608 -0.9981 0.0018
vn 0.0793 -0.9968 0.0075
vn 0.0548 -0.9985 0.0000
vn 0.5513 0.0108 -0.8342
vn -0.2613 0.5124 0.8180
vn 0.4602 -0.3040 0.8342
vn 0.7423 0.0833 0.6648
vn -0.0580 0.6595 -0.7494
vn 0.4805 0.2822 0.8303
vn 0.0147 0.9997 -0.0205
vn 0.0019 0.9995 -0.0326
vn -1.0000 0.0000 -0.0015
vn -1.0000 -0.0001 -0.0001
vn 0.0849 -0.9963 0.0092
usemtl FrontColor.003
s 1
f 1/1/1 2/2/2 3/3/3
f 4/4/4 3/5/3 5/6/5
f 6/7/6 7/8/7 2/9/2
f 7/10/7 8/11/8 9/12/9
f 10/13/10 11/14/11 12/15/12
f 13/16/13 14/17/14 15/18/15
f 16/19/16 17/20/17 18/21/18
f 14/22/19 16/23/20 15/24/21
f 11/25/11 19/26/22 12/27/12
f 20/28/23 21/29/24 22/30/25
f 20/31/23 16/32/16 21/33/24
f 22/34/25 17/35/17 20/36/23
f 18/37/18 4/38/4 5/39/5
f 1/1/1 6/40/6 2/2/2
f 5/41/5 3/42/3 7/43/7
f 2/44/2 7/43/7 3/42/3
f 18/45/18 5/41/5 9/46/9
f 7/43/7 9/46/9 5/41/5
f 12/47/26 18/45/18 9/46/9
f 4/4/4 1/48/1 3/5/3
f 23/49/27 6/50/6 1/51/1
f 1/51/1 4/52/4 23/49/27
f 4/52/4 17/53/17 8/54/8
f 8/54/8 23/49/27 4/52/4
f 22/55/25 8/54/8 17/53/17
f 6/7/6 23/56/27 7/8/7
f 7/10/7 23/57/27 8/11/8
f 12/15/12 9/58/9 22/59/25
f 9/58/9 8/60/8 22/59/25
f 22/59/25 10/13/10 12/15/12
f 19/61/28 13/62/29 18/63/18
f 12/64/26 19/61/28 18/63/18
f 13/16/13 19/65/22 14/17/14
f 13/66/30 15/67/31 18/21/18
f 15/67/31 16/19/16 18/21/18
f 16/19/16 20/68/23 17/20/17
f 14/22/19 21/69/32 16/23/20
f 21/70/24 14/71/14 10/72/10
f 11/73/11 10/72/10 14/71/14
f 11/74/11 14/75/14 19/76/22
f 22/77/25 21/78/24 10/79/10
f 18/37/18 17/80/17 4/38/4
