# Blender v2.79 (sub 0) OBJ File: ''
# www.blender.org
mtllib Haptic_tip_shaft_collision.mtl
o Mesh1_Group1_Model
v 1.350010 11.166207 256.939484
v -1.002637 11.419662 256.939484
v -1.002637 11.419655 307.000000
v -1.002641 6.578561 156.939484
v -2.640257 8.999127 106.939484
v -1.002641 6.578569 106.939484
v -1.002641 6.578553 206.939484
v -2.640257 8.999119 156.939484
v -1.002641 6.578545 256.939484
v -2.640257 8.999113 206.939484
v 0.173684 8.872369 307.000000
v 2.640257 8.999097 307.000000
v 1.350010 11.166200 307.000000
v 1.349992 6.831980 307.000000
v -1.002641 6.578537 307.000000
v -2.640257 8.999097 307.000000
v -2.640257 8.999104 256.939484
v 1.349992 6.831989 256.939484
v 2.640257 8.999104 256.939484
v -1.002637 11.419685 106.939484
v -1.002637 11.419677 156.939484
v -1.002637 11.419671 206.939484
v -0.000030 10.249310 -25.354313
v -0.997248 11.320025 -24.956949
v 0.341620 11.488210 -25.158102
v 1.524354 11.017159 -24.584171
v 2.050574 10.265716 -23.865183
v 0.000030 7.749313 -25.354313
v 0.997232 6.678586 -24.956957
v -1.132801 6.649828 -24.957966
v -2.050574 7.732907 -23.865183
v 2.110100 7.711828 -23.764477
v 1.349992 6.831997 206.939484
v 1.349992 6.832005 156.939484
v 2.640257 8.999113 206.939484
v 1.349992 6.832013 106.939484
v 2.640257 8.999119 156.939484
v 1.350010 11.166216 206.939484
v 1.350010 11.166223 156.939484
v 1.350010 11.166231 106.939484
v 2.640257 8.999127 106.939484
v -1.002637 11.419702 6.939488
v -2.640257 8.999134 56.939484
v -1.002637 11.419693 56.939484
v -1.002641 6.578579 56.939484
v -2.218295 10.203190 -17.499996
v -2.640257 8.999143 6.939487
v -1.002641 6.578587 6.939486
v -2.370499 7.915767 -17.499996
v -1.002641 6.578591 -17.489630
v 1.349992 6.832030 6.939486
v 2.218295 7.795426 -17.499996
v 2.640257 8.999143 6.939487
v 1.350010 11.166246 6.939488
v -1.002637 11.419705 -17.489630
v 2.370498 10.082850 -17.499996
v 1.350010 11.166250 -17.489630
v -2.110100 10.286796 -23.764477
v 1.349992 6.832034 -17.489630
v 1.349992 6.832022 56.939484
v 2.640257 8.999134 56.939484
v 1.350010 11.166238 56.939484
v -2.080337 9.009851 -23.814829
v 2.080337 8.988771 -23.814829
v -1.065024 8.984926 -24.957457
v 1.260793 8.847872 -24.770563
vt 0.000000 0.000000
vt 0.000000 0.000000
vt 0.000000 0.000000
vt 0.000000 0.000000
vt 0.000000 0.000000
vt 0.000000 0.000000
vt 0.000000 0.000000
vt 0.000000 0.000000
vt 0.000000 0.000000
vt 0.000000 0.000000
vt 0.000000 0.000000
vt 0.000000 0.000000
vt 0.000000 0.000000
vt 0.000000 0.000000
vt 0.000000 0.000000
vt 0.000000 0.000000
vt 0.000000 0.000000
vt 0.000000 0.000000
vt 0.000000 0.000000
vt 0.000000 0.000000
vt 0.000000 0.000000
vt 0.000000 0.000000
vt 0.000000 0.000000
vt 0.000000 0.000000
vt 0.000000 0.000000
vt 0.000000 0.000000
vt 0.000000 0.000000
vt 0.000000 0.000000
vt 0.000000 0.000000
vt 0.000000 0.000000
vt 0.000000 0.000000
vt 0.000000 0.000000
vt 0.000000 0.000000
vt 0.000000 0.000000
vt 0.000000 0.000000
vt 0.000000 0.000000
vt 0.000000 0.000000
vt 0.000000 0.000000
vt 0.000000 0.000000
vt 0.000000 0.000000
vt -1.223764 14.534727
vt 0.000000 0.000000
vt -1.062936 5.760931
vt 0.000000 0.000000
vt 0.000000 0.000000
vt 0.000000 0.000000
vt 0.000000 0.000000
vt 6.208714 18.498962
vt 0.000000 0.000000
vt 0.000000 0.000000
vt 0.000000 0.000000
vt 0.000000 0.000000
vt 6.252570 1.158409
vt 0.000000 0.000000
vt 14.944725 1.697357
vt -18.461290 5.150337
vt 0.000000 0.000000
vt 14.933343 18.023411
vt 0.000000 0.000000
vt 0.000000 0.000000
vt 0.000000 0.000000
vt 0.000000 0.000000
vt 0.000000 0.000000
vt 0.000000 0.000000
vt 0.000000 0.000000
vt 0.000000 0.000000
vt 19.055943 9.875372
vn 0.1071 0.9942 0.0000
vn -0.8283 -0.5604 -0.0000
vn 0.0000 0.0000 1.0000
vn -0.8283 0.5604 0.0000
vn 0.1071 -0.9942 -0.0000
vn 0.8592 -0.5116 -0.0000
vn 0.8592 0.5116 0.0000
vn -0.1701 0.1997 -0.9650
vn 0.4429 0.0198 -0.8964
vn -0.3492 -0.0000 -0.9371
vn 0.0051 -0.3438 -0.9390
vn -0.7402 0.0216 -0.6720
vn -0.9969 0.0644 -0.0447
vn -0.9972 0.0664 -0.0343
vn -0.9964 0.0762 -0.0379
vn 0.3980 0.0304 -0.9169
vn 0.4414 0.0234 -0.8970
vn -0.3389 0.0100 -0.9408
vn -0.3602 0.0107 -0.9328
vn 0.4202 0.0000 -0.9075
vn -0.7547 0.0220 -0.6557
vn -0.7474 0.0088 -0.6643
vn -0.9996 -0.0226 -0.0176
vn -0.9994 -0.0225 -0.0281
vn -0.9985 -0.0213 -0.0496
vn -0.9980 -0.0200 -0.0600
vn 0.7597 -0.0221 -0.6499
vn 0.9317 0.2371 -0.2751
vn 0.9319 0.0021 -0.3626
vn -0.4189 0.9080 0.0037
vn -1.0000 0.0000 -0.0000
vn -0.4208 0.9072 0.0000
vn -0.4208 -0.9071 -0.0000
vn -0.8575 0.5145 -0.0054
vn -1.0000 0.0004 0.0082
vn -0.4185 -0.9082 0.0043
vn -0.8639 -0.5035 -0.0138
vn -0.3316 -0.9434 -0.0001
vn 0.5387 -0.8425 0.0028
vn 0.9223 -0.3865 -0.0016
vn 1.0000 -0.0005 0.0064
vn 0.5383 0.8427 0.0035
vn -0.3373 0.9414 0.0053
vn 0.9412 0.3372 -0.0180
vn 0.4514 0.8923 0.0027
vn -0.6888 0.7249 -0.0093
vn 0.2759 -0.9611 -0.0100
vn 0.4577 -0.8891 0.0024
vn -0.7519 -0.6592 0.0042
vn -0.3034 -0.9529 -0.0038
vn 0.9082 -0.3136 -0.2772
vn 0.5401 -0.8416 -0.0000
vn 1.0000 -0.0000 -0.0000
vn 0.5401 0.8416 0.0000
vn 0.1014 0.9948 -0.0075
vn -0.3358 0.9418 -0.0128
vn 0.5357 0.8444 -0.0046
vn 0.7449 -0.0332 -0.6664
vn 0.7847 -0.0422 -0.6184
usemtl FrontColor.002
s off
f 1/1/1 2/2/1 3/3/1
f 4/4/2 5/5/2 6/6/2
f 7/7/2 8/8/2 4/4/2
f 9/9/2 10/10/2 7/7/2
f 11/11/3 12/12/3 13/13/3
f 14/14/3 12/12/3 11/11/3
f 15/15/3 14/14/3 11/11/3
f 15/15/3 11/11/3 16/16/3
f 11/11/3 13/13/3 3/3/3
f 3/3/3 16/16/3 11/11/3
f 2/2/4 17/17/4 16/16/4
f 17/17/2 9/9/2 15/15/2
f 9/9/5 18/18/5 14/14/5
f 14/14/6 18/18/6 19/19/6
f 12/12/7 19/19/7 1/1/7
f 1/1/1 3/3/1 13/13/1
f 2/2/4 16/16/4 3/3/4
f 17/17/2 15/15/2 16/16/2
f 9/9/5 14/14/5 15/15/5
f 14/14/6 19/19/6 12/12/6
f 12/12/7 1/1/7 13/13/7
f 20/20/4 8/8/4 21/21/4
f 21/21/4 10/10/4 22/22/4
f 22/22/4 17/17/4 2/2/4
f 23/23/8 24/24/8 25/25/8
f 25/25/9 26/26/9 23/23/9
f 65/27/10 23/23/10 28/28/10
f 28/28/11 29/29/11 30/30/11
f 7/7/5 18/18/5 9/9/5
f 4/4/5 33/31/5 7/7/5
f 6/6/5 34/32/5 4/4/5
f 33/31/6 19/19/6 18/18/6
f 34/32/6 35/33/6 33/31/6
f 36/34/6 37/35/6 34/32/6
f 19/19/7 38/36/7 1/1/7
f 35/33/7 39/37/7 38/36/7
f 37/35/7 40/38/7 39/37/7
f 1/1/1 22/22/1 2/2/1
f 38/36/1 21/21/1 22/22/1
f 39/37/1 20/20/1 21/21/1
f 4/4/2 8/8/2 5/5/2
f 7/7/2 10/10/2 8/8/2
f 9/9/2 17/17/2 10/10/2
f 20/20/4 5/5/4 8/8/4
f 21/21/4 8/8/4 10/10/4
f 22/22/4 10/10/4 17/17/4
f 7/7/5 33/31/5 18/18/5
f 4/4/5 34/32/5 33/31/5
f 6/6/5 36/34/5 34/32/5
f 33/31/6 35/33/6 19/19/6
f 34/32/6 37/35/6 35/33/6
f 36/34/6 41/39/6 37/35/6
f 19/19/7 35/33/7 38/36/7
f 35/33/7 37/35/7 39/37/7
f 37/35/7 41/39/7 40/38/7
f 1/1/1 38/36/1 22/22/1
f 38/36/1 39/37/1 21/21/1
f 39/37/1 40/38/1 20/20/1
f 58/40/12 24/24/12 65/27/12
f 46/41/13 63/42/14 49/43/15
f 66/44/16 29/29/16 28/28/16
f 23/23/17 26/26/17 66/44/17
f 28/28/18 30/30/18 65/27/18
f 65/27/19 24/24/19 23/23/19
f 28/28/20 23/23/20 66/44/20
f 65/27/21 30/30/21 31/45/21
f 31/45/22 63/42/22 65/27/22
f 63/42/22 58/40/22 65/27/22
f 58/40/23 63/42/23 46/41/24
f 63/42/25 31/45/25 49/43/26
s 1
f 66/44/27 27/46/28 64/47/29
f 42/48/30 43/49/31 44/50/32
f 6/6/33 43/49/31 45/51/33
f 42/48/30 46/41/34 47/52/35
f 48/53/36 49/43/37 50/54/38
f 50/54/38 51/55/39 48/53/36
f 51/55/39 52/56/40 53/57/41
f 44/50/32 5/5/31 20/20/32
f 54/58/42 55/59/43 42/48/30
f 54/58/42 56/60/44 57/61/45
f 53/57/41 52/56/40 56/60/44
f 27/46/28 57/61/45 56/60/44
f 47/52/35 46/41/34 49/43/37
f 55/59/43 58/40/46 46/41/34
f 50/54/38 29/29/47 59/62/48
f 50/54/38 31/45/49 30/30/50
f 59/62/48 32/63/51 52/56/40
f 45/51/33 47/52/35 48/53/36
f 45/51/33 36/34/52 6/6/33
f 48/53/36 60/64/52 45/51/33
f 60/64/52 41/39/53 36/34/52
f 51/55/39 61/65/53 60/64/52
f 41/39/53 62/66/54 40/38/54
f 61/65/53 54/58/42 62/66/54
f 40/38/54 44/50/32 20/20/32
f 62/66/54 42/48/30 44/50/32
f 57/61/45 25/25/55 55/59/43
f 24/24/56 55/59/43 25/25/55
f 57/61/45 26/26/57 25/25/55
f 42/48/30 47/52/35 43/49/31
f 6/6/33 5/5/31 43/49/31
f 42/48/30 55/59/43 46/41/34
f 48/53/36 47/52/35 49/43/37
f 50/54/38 59/62/48 51/55/39
f 51/55/39 59/62/48 52/56/40
f 44/50/32 43/49/31 5/5/31
f 54/58/42 57/61/45 55/59/43
f 54/58/42 53/67/41 56/60/44
f 27/46/28 26/26/57 57/61/45
f 55/59/43 24/24/56 58/40/46
f 64/47/29 27/46/28 56/60/44
f 50/54/38 30/30/50 29/29/47
f 50/54/38 49/43/37 31/45/49
f 59/62/48 29/29/47 32/63/51
f 45/51/33 43/49/31 47/52/35
f 45/51/33 60/64/52 36/34/52
f 48/53/36 51/55/39 60/64/52
f 60/64/52 61/65/53 41/39/53
f 51/55/39 53/57/41 61/65/53
f 41/39/53 61/65/53 62/66/54
f 61/65/53 53/67/41 54/58/42
f 40/38/54 62/66/54 44/50/32
f 62/66/54 54/58/42 42/48/30
f 64/47/29 32/63/51 66/44/27
f 32/63/51 29/29/58 66/44/27
f 66/44/27 26/26/59 27/46/28
f 56/60/44 52/56/40 64/47/29
f 52/56/40 32/63/51 64/47/29
