# Alias OBJ Model File
# Exported from SketchUp, (c) 2000-2012 Trimble Navigation Limited
# File units = millimeters

mtllib Scope.mtl

g Mesh1 Group1 Model

usemtl FrontColor
v -2.5 350 1.73195e-14
vt 0 9.84252
vn 0 1 -0
v -2.41481 350 0.647048
vt 0.335376 7.29509
v -2.16506 350 1.25
vt 1.31865 4.92126
v -1.76777 350 1.76777
vt 2.88281 2.88281
v -1.25 350 2.16506
vt 4.92126 1.31865
v -0.647048 350 2.41481
vt 7.29509 0.335376
v -1.82077e-14 350 2.5
vt 9.84252 0
v 0.647048 350 2.41481
vt 12.39 0.335376
v 1.25 350 2.16506
vt 14.7638 1.31865
v 1.76777 350 1.76777
vt 16.8022 2.88281
v 2.16506 350 1.25
vt 18.3664 4.92126
v 2.41481 350 0.647048
vt 19.3497 7.29509
v 2.5 350 1.77636e-14
vt 19.685 9.84252
v 2.41481 350 -0.647048
vt 19.3497 12.39
v 2.16506 350 -1.25
vt 18.3664 14.7638
v 1.76777 350 -1.76777
vt 16.8022 16.8022
v 1.25 350 -2.16506
vt 14.7638 18.3664
v 0.647048 350 -2.41481
vt 12.39 19.3497
v -1.77636e-14 350 -2.5
vt 9.84252 19.685
v -0.647048 350 -2.41481
vt 7.29509 19.3497
v -1.25 350 -2.16506
vt 4.92126 18.3664
v -1.76777 350 -1.76777
vt 2.88281 16.8022
v -2.16506 350 -1.25
vt 1.31865 14.7638
v -2.41481 350 -0.647048
vt 0.335376 12.39
f 1/1/1 2/2/1 3/3/1 4/4/1 5/5/1 6/6/1 7/7/1 8/8/1 9/9/1 10/10/1 11/11/1 12/12/1 13/13/1 14/14/1 15/15/1 16/16/1 17/17/1 18/18/1 19/19/1 20/20/1 21/21/1 22/22/1 23/23/1 24/24/1 

vt -9.75832 1383.64
vn -1 -1.4398e-18 5.03911e-16
v -2.5 -1.44338 2.57572e-14
vt -9.75832 4.64391e-19
v -2.41481 -1.39419 0.647048
vt -7.1889 0.193629
vn -0.965926 -5.24785e-19 0.258819
vt -7.1889 1383.64
f 1/25/2 25/26/2 26/27/3 2/28/3 

vt -12.3277 1383.64
vn -0.965926 -1.09161e-18 -0.258819
v -2.41481 -1.39419 -0.647048
vt -12.3277 0.193629
vt -9.75832 4.13219e-18
f 24/29/4 27/30/4 25/31/2 1/25/2 

vt -14.1446 1383.64
vn -0.866025 8.12586e-19 -0.5
v -2.16506 -1.25 -1.25
vt -14.1446 0.761322
vt -11.5752 0.193629
vt -11.5752 1383.64
f 23/32/5 28/33/5 27/34/4 24/35/4 

vt -15.085 1383.64
vn -0.707107 -2.91195e-19 -0.707107
v -1.76777 -1.02062 -1.76777
vt -15.085 1.66439
vt -12.5156 0.761322
vt -12.5156 1383.64
f 22/36/6 29/37/6 28/38/5 23/39/5 

vn -0.5 -7.9021e-19 -0.866025
v -1.25 -0.721688 -2.16506
vt -15.085 2.84129
vt -12.5156 1.66439
f 21/36/7 30/40/7 29/41/6 22/39/6 

vn -0.258819 -1.77142e-19 -0.965926
v -0.647048 -0.373573 -2.41481
vt -14.1446 4.21182
vt -11.5752 2.84129
f 20/32/8 31/42/8 30/43/7 21/35/7 

vn 5.59902e-16 4.64846e-20 -1
v -1.77636e-14 -2.24265e-14 -2.5
vt -12.3277 5.68258
vt -9.75832 4.21182
f 19/29/9 32/44/9 31/45/8 20/25/8 

vn 0.258819 7.68995e-19 -0.965926
v 0.647048 0.373573 -2.41481
vt -9.75832 7.15334
vt -7.1889 5.68258
f 18/25/10 33/46/10 32/47/9 19/28/9 

vt -6.61144 1383.64
vn 0.5 7.83695e-19 -0.866025
v 1.25 0.721688 -2.16506
vt -6.61144 8.52387
vt -4.04203 7.15334
vt -4.04203 1383.64
f 17/48/11 34/49/11 33/50/10 18/51/10 

vt -3.10156 1383.64
vn 0.707107 -4.67875e-19 -0.707107
v 1.76777 1.02062 -1.76777
vt -3.10156 9.70077
vt -0.532143 8.52387
vt -0.532143 1383.64
f 16/52/12 35/53/12 34/54/11 17/55/11 

vt 0.532143 1383.64
vn 0.866025 -2.04693e-19 -0.5
v 2.16506 1.25 -1.25
vt 0.532143 10.6038
vt 3.10156 9.70077
vt 3.10156 1383.64
f 15/56/13 36/57/13 35/58/12 16/59/12 

vt 4.04203 1383.64
vn 0.965926 6.05431e-19 -0.258819
v 2.41481 1.39419 -0.647048
vt 4.04203 11.1715
vt 6.61144 10.6038
vt 6.61144 1383.64
f 14/60/14 37/61/14 36/62/13 15/63/13 

vt 7.1889 1383.64
vn 1 4.19333e-19 1.27378e-15
v 2.5 1.44338 1.77636e-14
vt 7.1889 11.3652
vt 9.75832 11.1715
vt 9.75832 1383.64
f 13/64/15 38/65/15 37/66/14 14/67/14 

vn 0.965926 -4.50046e-19 0.258819
v 2.41481 1.39419 0.647048
vt 12.3277 11.3652
vt 12.3277 1383.64
f 12/67/16 39/66/16 38/68/15 13/69/15 

vt 11.5752 1383.64
vn 0.866025 -1.09044e-18 0.5
v 2.16506 1.25 1.25
vt 11.5752 10.6038
vt 14.1446 11.1715
vt 14.1446 1383.64
f 11/70/17 40/71/17 39/72/16 12/73/16 

vt 12.5156 1383.64
vn 0.707107 -9.42627e-19 0.707107
v 1.76777 1.02062 1.76777
vt 12.5156 9.70077
vt 15.085 10.6038
vt 15.085 1383.64
f 10/74/18 41/75/18 40/76/17 11/77/17 

vn 0.5 -5.33731e-19 0.866025
v 1.25 0.721688 2.16506
vt 12.5156 8.52387
vt 15.085 9.70077
f 9/74/19 42/78/19 41/79/18 10/77/18 

vn 0.258819 -1.7376e-19 0.965926
v 0.647048 0.373573 2.41481
vt 11.5752 7.15334
vt 14.1446 8.52387
f 8/70/20 43/80/20 42/81/19 9/73/19 

vn -6.71882e-16 -3.2068e-19 1
v -1.86517e-14 -2.28706e-14 2.5
vt 9.75832 5.68258
vt 12.3277 7.15334
f 7/67/21 44/82/21 43/83/20 8/69/20 

vn -0.258819 -5.20316e-19 0.965926
v -0.647048 -0.373573 2.41481
vt 7.1889 4.21182
f 6/64/22 45/84/22 44/82/21 7/67/21 

vn -0.5 7.94149e-20 0.866025
v -1.25 -0.721688 2.16506
vt 4.04203 2.84129
vt 6.61144 4.21182
f 5/60/23 46/85/23 45/86/22 6/63/22 

vn -0.707107 -1.96661e-18 0.707107
v -1.76777 -1.02062 1.76777
vt 0.532143 1.66439
vt 3.10156 2.84129
f 4/56/24 47/87/24 46/88/23 5/59/23 

vn -0.866025 -2.9935e-18 0.5
v -2.16506 -1.25 1.25
vt -3.10156 0.761322
vt -0.532143 1.66439
f 3/52/25 48/89/25 47/90/24 4/55/24 

vt -6.61144 0.193629
vt -4.04203 0.761322
f 2/48/3 26/91/3 48/92/25 3/51/25 

vt 7.29509 0.387259
vn 0.5 -0.866025 8.46698e-18
vt 9.84252 2.9324e-15
vt 12.39 0.387259
vt 14.7638 1.52264
vt 16.8022 3.32878
vt 18.3664 5.68258
vt 19.3497 8.42364
vt 19.685 11.3652
vt 19.3497 14.3067
vt 18.3664 17.0477
vt 16.8022 19.4015
vt 14.7638 21.2077
vt 12.39 22.3431
vt 9.84252 22.7303
vt 7.29509 22.3431
vt 4.92126 21.2077
vt 2.88281 19.4015
vt 1.31865 17.0477
vt 0.335376 14.3067
vt 1.66673e-16 11.3652
vt 0.335376 8.42364
vt 1.31865 5.68258
vt 2.88281 3.32878
vt 4.92126 1.52264
f 26/93/26 25/94/26 27/95/26 28/96/26 29/97/26 30/98/26 31/99/26 32/100/26 33/101/26 34/102/26 35/103/26 36/104/26 37/105/26 38/106/26 39/107/26 40/108/26 41/109/26 42/110/26 43/111/26 44/112/26 45/113/26 46/114/26 47/115/26 48/116/26 

